<svg xmlns="http://www.w3.org/2000/svg" width="520" height="330" viewBox="0 0 520 330"><rect width="520" height="330" fill="#fff"/><ellipse cx="276" cy="168" rx="185" ry="118" fill="#EEF5FB"/><circle cx="208" cy="125" r="38" fill="#FF806B"/><path d="M170 290c4-98 48-140 96-116 36 18 48 65 47 116" fill="#2963A3"/><circle cx="335" cy="138" r="36" fill="#FFD7A6"/><path d="M300 290c-14-85 15-142 64-126 42 13 66 56 66 126" fill="#FBC85B"/><path d="M198 134c18 9 35 6 46-5M324 149c16 9 31 6 40-4" stroke="#292929" stroke-width="4" fill="none" stroke-linecap="round"/><path d="M260 212c28-15 50-24 70-23" stroke="#fff" stroke-width="11" fill="none" stroke-linecap="round"/></svg>